<svg id="Layer_1" data-name="Layer 1" xmlns="http://www.w3.org/2000/svg" xmlns:xlink="http://www.w3.org/1999/xlink" viewBox="0 0 2000 876.84"><defs><style>.cls-1{fill:#4470b5;}.cls-2{fill:url(#linear-gradient);}.cls-3{fill:url(#linear-gradient-2);}.cls-4{fill:url(#linear-gradient-3);}.cls-5{fill:url(#linear-gradient-4);}.cls-6{fill:url(#linear-gradient-5);}</style><linearGradient id="linear-gradient" x1="279.68" y1="328.62" x2="499.28" y2="548.22" gradientUnits="userSpaceOnUse"><stop offset="0" stop-color="#4570b5"/><stop offset="0.56" stop-color="#ae1d29"/><stop offset="1" stop-color="#4570b5"/></linearGradient><linearGradient id="linear-gradient-2" x1="129.13" y1="551.96" x2="324.83" y2="356.26" gradientUnits="userSpaceOnUse"><stop offset="0" stop-color="#4570b5"/><stop offset="0.47" stop-color="#bee0e9"/><stop offset="1" stop-color="#ae1d29"/></linearGradient><linearGradient id="linear-gradient-3" x1="5070.54" y1="20165.79" x2="5290.14" y2="20385.39" gradientTransform="translate(5667.3 20714.01) rotate(180)" xlink:href="#linear-gradient"/><linearGradient id="linear-gradient-4" x1="4919.99" y1="20389.13" x2="5115.69" y2="20193.43" gradientTransform="translate(5667.3 20714.01) rotate(180)" xlink:href="#linear-gradient-2"/><linearGradient id="linear-gradient-5" x1="225.58" y1="56.47" x2="650.86" y2="820.37" gradientUnits="userSpaceOnUse"><stop offset="0" stop-color="#ae1d29"/><stop offset="0.53" stop-color="#335da5"/><stop offset="1" stop-color="#4570b5"/></linearGradient></defs><path class="cls-1" d="M1194.87,493.07a17.1,17.1,0,0,1,.56,13.68,17.45,17.45,0,0,1-9.3,10.1,18.74,18.74,0,0,1-17.16-1.13,16.68,16.68,0,0,1-6.61-7.85L1115,404.5a16.37,16.37,0,0,0-6.39-7.51,17.3,17.3,0,0,0-9.53-2.81,16.77,16.77,0,0,0-9.42,2.81,18.1,18.1,0,0,0-6.5,7.51l-47.09,103.37a17.86,17.86,0,0,1-10.09,9.42,16.77,16.77,0,0,1-13.68-.44,17.91,17.91,0,0,1-9.42-10.1,16.81,16.81,0,0,1,.45-13.68l47.09-103.37a48.93,48.93,0,0,1,8.19-12.9,56.92,56.92,0,0,1,11.54-10,52.39,52.39,0,0,1,28.93-8.52,51.68,51.68,0,0,1,28.93,8.52,52.3,52.3,0,0,1,19.73,22.87Z"/><path class="cls-1" d="M1366,379.38a71.45,71.45,0,0,1,15.24,22.88,69.17,69.17,0,0,1,5.84,27.8v70.41a17.94,17.94,0,1,1-35.88,0V430.06a34.74,34.74,0,0,0-2.81-13.9A36.33,36.33,0,0,0,1329.19,397a34.74,34.74,0,0,0-13.9-2.81h-24.45a35.52,35.52,0,0,0-14,2.81,35,35,0,0,0-11.44,7.73,37.54,37.54,0,0,0-7.62,11.44,34.73,34.73,0,0,0-2.8,13.9v70.41a17.94,17.94,0,0,1-35.88,0V430.06a68.57,68.57,0,0,1,5.6-27.8,71.48,71.48,0,0,1,15.25-22.88,76.8,76.8,0,0,1,22.87-15.25,71,71,0,0,1,28-5.82h24.45a69.36,69.36,0,0,1,27.8,5.82A71.53,71.53,0,0,1,1366,379.38Z"/><path class="cls-1" d="M1575.18,381.62a71.59,71.59,0,0,1,17,25.35,87.42,87.42,0,0,1,0,62.78,71.46,71.46,0,0,1-17,25.34,79.32,79.32,0,0,1-28,17.38,103,103,0,0,1-35.88,5.94h-10.54a103,103,0,0,1-35.87-5.94,79.32,79.32,0,0,1-28-17.38,71.46,71.46,0,0,1-17-25.34,87.42,87.42,0,0,1,0-62.78,71.59,71.59,0,0,1,17-25.35,79.44,79.44,0,0,1,28-17.37,103.22,103.22,0,0,1,35.87-5.94h10.54a103.24,103.24,0,0,1,35.88,5.94A79.44,79.44,0,0,1,1575.18,381.62Zm-63.91,100.91q24,0,37.45-11.66t13.46-32.51q0-20.85-13.46-32.52t-37.45-11.66h-10.54q-24,0-37.44,11.66t-13.46,32.52q0,20.85,13.46,32.51t37.44,11.66Z"/><path class="cls-1" d="M1800.32,360.1a17.84,17.84,0,0,1,9.42,10,17.1,17.1,0,0,1-.45,13.79L1762,487.25a52.33,52.33,0,0,1-8.19,12.77,49.72,49.72,0,0,1-11.55,9.87,53,53,0,0,1-57.63,0,50.14,50.14,0,0,1-11.55-9.87,52.29,52.29,0,0,1-8.18-12.77l-47.31-103.38a17,17,0,0,1-.45-13.79,17.84,17.84,0,0,1,9.42-10,17.08,17.08,0,0,1,13.67-.56,17.39,17.39,0,0,1,10.09,9.31l47.1,103.37a17.87,17.87,0,0,0,6.61,7.51,17.31,17.31,0,0,0,9.53,2.8,16.76,16.76,0,0,0,9.42-2.8,18.1,18.1,0,0,0,6.5-7.51l47.09-103.37a17.42,17.42,0,0,1,10.09-9.31A17.1,17.1,0,0,1,1800.32,360.1Z"/><path class="cls-1" d="M1866.92,456.3v5.6a20.92,20.92,0,0,0,1.57,8.08,19.8,19.8,0,0,0,11,11,20.91,20.91,0,0,0,8.07,1.57h82.3a17.94,17.94,0,0,1,0,35.88h-82.3a56.44,56.44,0,0,1-21.75-4.26,58.5,58.5,0,0,1-30.5-30.49A56.46,56.46,0,0,1,1831,461.9V415.26a56.09,56.09,0,0,1,16.6-40.14,57.17,57.17,0,0,1,18.5-12.44,55.88,55.88,0,0,1,21.86-4.37h61.89a47.79,47.79,0,0,1,18.84,3.7,49.22,49.22,0,0,1,26.57,26.57,49.51,49.51,0,0,1,0,37.56A49,49,0,0,1,1984.65,442a52,52,0,0,1-15.92,10.65,48,48,0,0,1-18.84,3.7Zm0-35.88h83a12.92,12.92,0,0,0,9.31-3.81,12.38,12.38,0,0,0,3.92-9.2,13.4,13.4,0,0,0-13.23-13.23H1888a20.52,20.52,0,0,0-8.3,1.68,21.71,21.71,0,0,0-6.61,4.49,21.33,21.33,0,0,0-4.49,6.73,20.54,20.54,0,0,0-1.68,8.18Z"/><path class="cls-2" d="M491,556.52c-10.48,8.22-22.28,13-36,13-73.1,0-93.54-136.06-137.15-212.13l-.05-.05c-.56-1-1.13-2-1.7-2.92-8.3-14-17.48-25.78-28-34l-.08-.09c10.44-8.17,22.28-12.93,35.91-12.93C411.77,307.34,423.56,503.74,491,556.52Z"/><path class="cls-3" d="M317.87,357.37C263.34,400.1,236.38,569.5,165.29,569.5c-11.06,0-20.58-3.84-29.1-10.48,46.75-36.58,94.51-194.14,151.92-238.66,10.53,8.26,19.71,20.05,28,34a5.16,5.16,0,0,0,1.7,2.92Z"/><path class="cls-4" d="M385.46,320.32c10.49-8.22,22.29-13,36-13,73.1,0,93.55,136.06,137.16,212.13l0,0c.57,1,1.14,2,1.71,2.92,8.3,14,17.47,25.78,28,34l.09.09C578,564.74,566.14,569.5,552.5,569.5,464.68,569.5,452.88,373.1,385.46,320.32Z"/><path class="cls-5" d="M558.58,519.47c54.53-42.73,81.49-212.13,152.58-212.13,11.05,0,20.58,3.84,29.1,10.48C693.5,354.4,645.75,512,588.33,556.48c-10.53-8.26-19.7-20.05-28-34a5.17,5.17,0,0,0-1.71-2.92Z"/><path class="cls-6" d="M438.22,875.64C197.14,875.64,1,679.51,1,438.42S197.14,1.2,438.22,1.2,875.45,197.33,875.45,438.42,679.31,875.64,438.22,875.64Zm0-820.91c-211.56,0-383.69,172.12-383.69,383.69S226.66,822.11,438.22,822.11,821.91,650,821.91,438.42,649.79,54.73,438.22,54.73Z"/></svg>